<svg width="66" height="80" fill="none" xmlns="http://www.w3.org/2000/svg"><path fill="#000" d="M14 12h8v12h-8zM26 12h8v8h-8zM18 4h36v8H18zM22 0h24v4H22zM54 8h4v4h-4zM38 12h16v8H38zM34 12h4v4h-4z"/><path fill="#000" d="M54 8h4v4h-4zM54 16h4v4h-4zM6 28h16v4H6zM30 20h4v4h-4zM42 20h12v4H42zM18 24h12v4H18zM26 28h4v4h-4zM18 36h4v4h-4zM2 32h4v4H2zM38 28h4v4h-4zM34 24h16v4H34zM46 28h16v4H46zM50 40h8v12h-8zM62 32h4v20h-4zM58 52h4v4h-4zM42 32h20v4H42zM30 40h8v4h-8zM26 36h16v4H26zM22 32h4v4h-4zM6 48h8v4H6z"/><path fill="gray" d="M22 20h8v4h-8zM34 20h8v4h-8zM54 36h8v4h-8zM38 40h4v8h-4zM14 36h4v4h-4zM58 40h4v12h-4z"/><path fill="#000" d="M2 40h4v8H2zM6 36h8v4H6zM14 40h4v8h-4zM18 44h8v4h-8zM18 48h4v8h-4zM22 56h4v4h-4zM18 60h33v4H18zM26 48h16v4H26zM34 52h4v8h-4zM38 56h8v4h-8zM50 56h8v4h-8zM46 52h4v4h-4z"/><path fill="silver" d="M46 36h4v16h-4z"/><path fill="#000" d="M42 36h4v16h-4z"/><path fill="gray" d="M6 32h16v4H6zM26 44h12v4H26zM18 40h12v4H18zM22 36h4v4h-4zM22 48h4v8h-4zM26 52h8v8h-8zM38 52h8v4h-8zM54 52h4v4h-4z"/><path fill="silver" d="M22 12h4v8h-4zM34 16h4v4h-4zM6 40h8v8H6zM50 52h4v4h-4zM50 36h4v4h-4zM22 28h4v4h-4zM26 32h16v4H26zM30 24h4v8h-4zM34 28h4v4h-4zM42 28h4v4h-4z"/><path fill="#000" d="M16 32h2v4h-2zM2 32h2v4H2zM8 34h4v2H8zM4 36h4v2H4zM12 36h4v2h-4zM12 38h2v2h-2zM4 30h2v2H4zM14 30h2v2h-2zM6 10h2v24H6zM12 10h2v24h-2zM8 8h4v2H8z"/><path fill="gray" d="M8 10h2v24H8zM8 36h4v4H8zM4 32h2v4H4zM6 34h2v2H6zM14 32h2v4h-2zM12 34h2v2h-2z"/><path fill="silver" d="M10 10h2v24h-2z"/><path fill="#000" d="M6 38h2v2H6z"/></svg>