<svg width="66" height="80" fill="none" xmlns="http://www.w3.org/2000/svg"><g clip-path="url(#clip0)"><path fill="#000" d="M12 16h8v8h-8zM24 16h8v8h-8zM16 8h36v8H16zM20 4h24v4H20zM52 12h4v4h-4zM36 16h16v8H36zM32 16h4v4h-4z"/><path fill="#000" d="M52 12h4v4h-4zM52 20h4v4h-4zM16 24h4v12h-4zM28 24h4v4h-4zM40 24h12v4H40z"/><path fill="#000" d="M12 28h16v4H12zM24 32h4v4h-4zM8 32h4v4H8zM36 32h4v4h-4zM32 28h16v4H32zM44 32h8v4h-8zM52 28h4v4h-4zM56 24h4v4h-4zM56 32h4v12h-4zM60 20h4v28h-4zM52 48h8v4h-8zM48 36h4v12h-4zM44 44h4v12h-4zM28 48h16v4H28zM24 44h12v4H24zM12 40h28v4H12zM20 36h4v4h-4zM4 36h4v12H4zM8 44h4v8H8zM12 48h4v8h-4zM16 56h4v4h-4zM20 60h28v4H20zM28 52h4v8h-4zM40 56h4v4h-4z"/><path fill="gray" d="M20 24h8v4h-8zM32 24h8v4h-8zM52 24h4v4h-4zM56 28h4v4h-4zM48 28h4v4h-4zM44 36h4v8h-4zM40 40h4v8h-4zM36 44h4v4h-4zM8 36h12v4H8zM12 32h4v4h-4zM8 40h4v4H8zM16 52h4v4h-4zM20 48h8v4h-8zM56 44h4v4h-4zM40 52h4v4h-4zM32 52h8v8h-8z"/><path fill="silver" d="M20 16h4v8h-4zM32 20h4v4h-4zM12 44h12v4H12zM20 52h8v8h-8zM16 48h4v4h-4zM20 32h4v4h-4zM28 28h4v8h-4zM24 36h20v4H24zM32 32h4v4h-4zM40 32h4v4h-4z"/><path fill="#000" d="M26 52h2v4h-2zM12 52h2v4h-2zM18 78h4v2h-4zM14 50h4v2h-4zM22 50h4v2h-4zM22 48h2v2h-2zM14 56h2v2h-2zM24 56h2v2h-2zM16 54h2v24h-2zM22 54h2v24h-2zM18 52h4v2h-4z"/><path fill="gray" d="M18 54h2v24h-2zM18 48h4v4h-4zM14 52h2v4h-2zM16 52h2v2h-2zM24 52h2v4h-2zM22 52h2v2h-2z"/><path fill="silver" d="M20 54h2v24h-2z"/><path fill="#000" d="M16 48h2v2h-2z"/></g><defs><clipPath id="clip0"><path fill="#fff" d="M0 0h66v80H0z"/></clipPath></defs></svg>