<svg width="64" height="64" fill="none" xmlns="http://www.w3.org/2000/svg"><path fill="#000" d="M8 8h4v12H8zM12 12h4v12h-4zM16 8h8v4h-8zM24 4h24v4H24zM48 8h8v4h-8zM56 12h4v12h-4zM52 24h4v8h-4zM48 32h4v4h-4zM44 20h4v36h-4zM40 16h4v4h-4zM24 12h4v4h-4zM16 20h4v4h-4zM28 16h4v4h-4zM32 20h8v4h-8zM36 40h8v4h-8zM32 24h4v28h-4zM52 48h4v12h-4zM16 24h12v4H16zM20 28h4v8h-4zM8 28h8v4H8zM8 32h4v4H8zM12 36h4v4h-4zM20 44h4v8h-4zM32 56h12v4H32zM12 56h4v8h-4zM16 60h44v4H16zM48 44h4v5h-4zM40 52h4v4h-4zM16 52h16v4H16zM16 40h16v4H16zM28 28h4v4h-4z"/><path fill="silver" d="M36 8h12v4H36zM24 8h4v4h-4zM28 12h8v4h-8zM32 16h8v4h-8zM44 12h12v4H44zM44 16h12v4H44zM48 20h8v4h-8zM48 24h4v8h-4zM36 24h4v4h-4zM28 24h4v4h-4zM20 20h4v4h-4zM16 16h4v4h-4zM16 36h4v4h-4zM40 36h4v4h-4zM32 52h8v4h-8zM36 44h8v8h-8z"/><path fill="#fff" d="M28 8h8v4h-8zM36 12h8v4h-8zM16 12h8v4h-8zM20 16h8v4h-8zM24 20h8v4h-8zM40 20h4v16h-4zM36 28h4v12h-4zM16 28h4v8h-4zM12 32h4v4h-4zM24 28h4v4h-4zM20 36h4v4h-4zM24 32h8v8h-8zM44 56h4v4h-4zM48 49h4v11h-4zM24 44h8v8h-8zM16 56h16v4H16z"/></svg>