<svg width="66" height="80" fill="none" xmlns="http://www.w3.org/2000/svg"><path fill="#000" d="M14 12h8v12h-8zM26 12h8v8h-8zM18 4h36v8H18zM22 0h24v4H22zM54 8h4v4h-4zM38 12h16v8H38zM34 12h4v4h-4z"/><path fill="#000" d="M54 8h4v4h-4zM54 16h4v4h-4zM18 24h4v8h-4zM30 20h4v4h-4zM42 20h12v4H42zM22 24h8v4h-8zM26 28h4v4h-4zM10 24h4v8h-4zM38 28h4v4h-4zM34 24h24v4H34zM46 28h4v4h-4zM58 28h4v4h-4zM58 36h4v12h-4zM62 24h4v28h-4zM54 52h8v4h-8zM50 32h4v20h-4zM30 40h8v4h-8zM26 36h16v4H26zM22 32h4v4h-4zM2 24h8v4H2z"/><path fill="gray" d="M22 20h8v4h-8zM34 20h8v4h-8zM58 32h4v4h-4zM46 32h4v8h-4zM42 36h4v8h-4zM38 40h4v8h-4zM14 24h4v8h-4zM58 48h4v4h-4z"/><path fill="#000" d="M2 28h4v8H2zM6 36h16v4H6z"/><path fill="#000" d="M14 32h4v16h-4zM18 44h8v4h-8zM18 48h4v8h-4zM22 56h4v4h-4zM18 60h20v4H18zM26 48h16v4H26zM34 52h4v8h-4zM38 56h8v4h-8zM42 52h8v4h-8zM54 32h4v4h-4zM46 40h4v12h-4zM42 44h4v4h-4z"/><path fill="gray" d="M18 32h4v4h-4zM26 44h12v4H26zM18 40h12v4H18zM22 36h4v4h-4zM22 48h4v8h-4zM26 52h8v8h-8zM38 52h4v4h-4zM42 48h4v4h-4zM50 28h8v4h-8z"/><path fill="silver" d="M22 12h4v8h-4zM34 16h4v4h-4zM6 28h4v8H6zM10 32h4v4h-4zM22 28h4v4h-4zM26 32h20v4H26zM30 24h4v8h-4zM34 28h4v4h-4zM42 28h4v4h-4z"/><path fill="#000" d="M14 24h2v4h-2zM0 24h2v4H0zM6 26h4v2H6zM2 28h4v2H2zM10 28h4v2h-4zM10 30h2v2h-2zM2 22h2v2H2zM12 22h2v2h-2zM4 2h2v24H4zM10 2h2v24h-2zM6 0h4v2H6z"/><path fill="gray" d="M6 2h2v24H6zM6 28h4v4H6zM2 24h2v4H2zM4 26h2v2H4zM12 24h2v4h-2zM10 26h2v2h-2z"/><path fill="silver" d="M8 2h2v24H8z"/><path fill="#000" d="M4 30h2v2H4z"/></svg>