<svg width="64" height="64" fill="none" xmlns="http://www.w3.org/2000/svg"><path fill="#000" d="M4 12h4v4H4zM8 12h8v8H8zM12 8h4v4h-4zM16 4h8v4h-8zM24 0h20v4H24zM44 4h4v4h-4zM48 8h4v4h-4zM52 12h4v4h-4zM56 16h4v8h-4zM52 24h4v4h-4zM48 28h4v4h-4zM44 16h4v28h-4zM40 12h4v4h-4zM24 8h4v4h-4zM16 16h4v4h-4zM28 12h4v4h-4zM32 16h8v4h-8zM40 36h4v4h-4zM32 20h4v24h-4zM36 40h4v12h-4zM48 44h4v12h-4zM16 20h12v4H16zM20 24h4v8h-4zM8 24h8v4H8zM8 28h4v4H8zM12 32h4v4h-4zM16 36h4v20h-4zM16 56h12v8H16zM12 60h4v4h-4zM28 60h24v4H28zM44 52h4v8h-4zM24 52h20v4H24zM20 40h12v4H20zM24 44h4v8h-4zM28 24h4v4h-4z"/><path fill="silver" d="M32 4h12v4H32zM24 4h4v4h-4zM28 8h4v4h-4zM32 12h8v4h-8zM40 8h8v4h-8zM44 12h8v4h-8zM48 16h8v8h-8zM48 24h4v4h-4zM36 20h4v4h-4zM28 20h4v4h-4zM20 16h4v4h-4zM16 12h4v4h-4zM16 32h4v4h-4zM20 36h12v4H20zM40 32h4v4h-4zM36 36h4v4h-4zM20 44h4v4h-4zM20 52h4v4h-4zM40 40h4v4h-4zM40 44h8v8h-8z"/><path fill="#fff" d="M28 4h4v4h-4zM32 8h8v4h-8zM16 8h8v4h-8zM20 12h8v4h-8zM24 16h8v4h-8zM40 16h4v16h-4zM36 24h4v12h-4zM16 24h4v8h-4zM12 28h4v4h-4zM24 24h4v4h-4zM20 32h4v4h-4zM24 28h8v8h-8zM20 48h4v4h-4zM28 44h8v8h-8zM28 56h16v4H28z"/></svg>